<svg xmlns="http://www.w3.org/2000/svg" width="460" height="215" viewBox="0 0 460 215" fill="none">
  <defs>
    <linearGradient id="lbg" x1="0" y1="0" x2="1" y2="1">
      <stop offset="0%" stop-color="#0b1423" />
      <stop offset="100%" stop-color="#081019" />
    </linearGradient>
  </defs>
  <rect width="460" height="215" rx="12" fill="url(#lbg)" />
  <rect x="0.5" y="0.5" width="459" height="214" rx="11.5" stroke="#58c6ff" stroke-opacity="0.08" />
  <g transform="translate(182 59.5) scale(4)" fill="none" stroke="#58c6ff" stroke-opacity="0.45" stroke-width="2" stroke-linecap="round" stroke-linejoin="round" vector-effect="non-scaling-stroke">
    <line x1="6" x2="10" y1="11" y2="11" />
    <line x1="8" x2="8" y1="9" y2="13" />
    <line x1="15" x2="15.01" y1="12" y2="12" />
    <line x1="18" x2="18.01" y1="10" y2="10" />
    <path d="M17.32 5H6.68a4 4 0 0 0-3.978 3.59c-.006.052-.01.101-.017.152C2.604 9.416 2 14.456 2 16a3 3 0 0 0 3 3c1 0 1.5-.5 2-1l1.414-1.414A2 2 0 0 1 9.828 16h4.344a2 2 0 0 1 1.414.586L17 18c.5.5 1 1 2 1a3 3 0 0 0 3-3c0-1.545-.604-6.584-.685-7.258-.007-.05-.011-.1-.017-.151A4 4 0 0 0 17.32 5z" />
  </g>
  <text x="230" y="182" text-anchor="middle" fill="#58c6ff" fill-opacity="0.22" font-family="system-ui, -apple-system, sans-serif" font-size="10" font-weight="600" letter-spacing="0.18em">STEAM BACKLOG HUNTER</text>
</svg>
