<svg xmlns="http://www.w3.org/2000/svg" width="600" height="900" viewBox="0 0 600 900" fill="none">
  <defs>
    <linearGradient id="pbg" x1="0" y1="0" x2="1" y2="1">
      <stop offset="0%" stop-color="#0b1423" />
      <stop offset="100%" stop-color="#081019" />
    </linearGradient>
    <radialGradient id="pglow" cx="50%" cy="42%" r="55%">
      <stop offset="0%" stop-color="#58c6ff" stop-opacity="0.08" />
      <stop offset="100%" stop-color="#58c6ff" stop-opacity="0" />
    </radialGradient>
  </defs>
  <rect width="600" height="900" rx="16" fill="url(#pbg)" />
  <rect width="600" height="900" rx="16" fill="url(#pglow)" />
  <rect x="0.5" y="0.5" width="599" height="899" rx="15.5" stroke="#58c6ff" stroke-opacity="0.08" />
  <g transform="translate(192 342) scale(9)" fill="none" stroke="#58c6ff" stroke-opacity="0.5" stroke-width="2" stroke-linecap="round" stroke-linejoin="round" vector-effect="non-scaling-stroke">
    <line x1="6" x2="10" y1="11" y2="11" />
    <line x1="8" x2="8" y1="9" y2="13" />
    <line x1="15" x2="15.01" y1="12" y2="12" />
    <line x1="18" x2="18.01" y1="10" y2="10" />
    <path d="M17.32 5H6.68a4 4 0 0 0-3.978 3.59c-.006.052-.01.101-.017.152C2.604 9.416 2 14.456 2 16a3 3 0 0 0 3 3c1 0 1.5-.5 2-1l1.414-1.414A2 2 0 0 1 9.828 16h4.344a2 2 0 0 1 1.414.586L17 18c.5.5 1 1 2 1a3 3 0 0 0 3-3c0-1.545-.604-6.584-.685-7.258-.007-.05-.011-.1-.017-.151A4 4 0 0 0 17.32 5z" />
  </g>
  <text x="300" y="680" text-anchor="middle" fill="#58c6ff" fill-opacity="0.3" font-family="system-ui, -apple-system, sans-serif" font-size="22" font-weight="700" letter-spacing="0.2em">STEAM BACKLOG</text>
  <text x="300" y="712" text-anchor="middle" fill="#58c6ff" fill-opacity="0.3" font-family="system-ui, -apple-system, sans-serif" font-size="22" font-weight="700" letter-spacing="0.2em">HUNTER</text>
</svg>
