<svg xmlns="http://www.w3.org/2000/svg" width="120" height="120" viewBox="0 0 120 120" fill="none">
  <rect width="120" height="120" rx="8" fill="#0f1923"/>
  <rect x="0.5" y="0.5" width="119" height="119" rx="7.5" stroke="white" stroke-opacity="0.08"/>
  <g transform="translate(36, 36)" opacity="0.3">
    <path d="M48 6C48 2.69 45.31 0 42 0H6C2.69 0 0 2.69 0 6V42C0 45.31 2.69 48 6 48H42C45.31 48 48 45.31 48 42V6Z" fill="#1e293b"/>
    <path d="M37 16.5H32.5V12C32.5 11.17 31.83 10.5 31 10.5H17C16.17 10.5 15.5 11.17 15.5 12V16.5H11C10.17 16.5 9.5 17.17 9.5 18V25.5C9.5 26.33 10.17 27 11 27H15.5V31.5C15.5 32.33 16.17 33 17 33H31C31.83 33 32.5 32.33 32.5 31.5V27H37C37.83 27 38.5 26.33 38.5 25.5V18C38.5 17.17 37.83 16.5 37 16.5Z" fill="#58c6ff" opacity="0.6"/>
    <circle cx="19.5" cy="21.75" r="1.8" fill="#0f1923"/>
    <circle cx="28.5" cy="21.75" r="1.8" fill="#0f1923"/>
  </g>
</svg>
