<svg xmlns="http://www.w3.org/2000/svg" width="32" height="32" viewBox="0 0 32 32">
  <rect width="32" height="32" rx="8" fill="rgba(84,174,255,0.15)"/>
  <rect x="0.5" y="0.5" width="31" height="31" rx="7.5" fill="none" stroke="rgba(255,255,255,0.1)"/>
  <g transform="translate(4,4)" width="24" height="24" stroke="#54aeff" stroke-width="2" stroke-linecap="round" stroke-linejoin="round" fill="none">
    <line x1="6" y1="12" x2="10" y2="12"/>
    <line x1="8" y1="10" x2="8" y2="14"/>
    <line x1="15" y1="13" x2="15.01" y2="13"/>
    <line x1="18" y1="11" x2="18.01" y2="11"/>
    <path d="M17.32 5H6.68a4 4 0 0 0-3.978 3.59c-.006.052-.01.101-.017.152C2.604 9.416 2 14.456 2 16a3 3 0 0 0 3 3c1.653 0 2.735-.969 3.616-2.036A.94.94 0 0 1 9.323 16.5h5.354a.94.94 0 0 1 .707.464c.88 1.067 1.963 2.036 3.616 2.036a3 3 0 0 0 3-3c0-1.544-.604-6.584-.685-7.258-.007-.05-.011-.1-.017-.152A4 4 0 0 0 17.32 5z"/>
  </g>
</svg>
